<svg width="16" height="16" viewBox="0 0 16 16" fill="none" xmlns="http://www.w3.org/2000/svg">
<mask id="mask0_117_57387" style="mask-type:alpha" maskUnits="userSpaceOnUse" x="1" y="0" width="14" height="16">
<path fill-rule="evenodd" clip-rule="evenodd" d="M14.72 0.666656H1.28003V15.3333H14.72V0.666656ZM11.0254 6.80472C11.2754 6.54438 11.2754 6.12227 11.0254 5.86192C10.7755 5.60157 10.3702 5.60157 10.1203 5.86192L7.04553 9.06479L5.89167 7.86766C5.64124 7.60779 5.23602 7.60866 4.98658 7.86952C4.73714 8.13039 4.73795 8.55252 4.98839 8.81232L6.59478 10.479C6.84489 10.7385 7.24937 10.7381 7.49897 10.4781L11.0254 6.80472Z" fill="#22955D"/>
</mask>
<g mask="url(#mask0_117_57387)">
<path d="M8.00008 14.1666C11.2696 14.1666 13.9201 11.4057 13.9201 7.99998C13.9201 4.59423 11.2696 1.83331 8.00008 1.83331C4.73055 1.83331 2.08008 4.59423 2.08008 7.99998C2.08008 11.4057 4.73055 14.1666 8.00008 14.1666Z" fill="#22955D" stroke="#22955D" stroke-width="1.5" stroke-miterlimit="10" stroke-linecap="round"/>
</g>
</svg>
