<svg width="40" height="40" viewBox="0 0 40 40" fill="none" xmlns="http://www.w3.org/2000/svg">
<rect x="0.25" y="0.25" width="39.5" height="39.5" rx="19.75" fill="#FFF6E6"/>
<rect x="0.25" y="0.25" width="39.5" height="39.5" rx="19.75" stroke="#E5E7EB" stroke-width="0.5"/>
<path fill-rule="evenodd" clip-rule="evenodd" d="M30.4711 16.6205C30.1415 16.5189 29.7914 16.4643 29.4286 16.4643H23.904C23.7645 15.3542 23.0404 14.3893 21.9884 13.9535C20.814 13.4671 19.4622 13.736 18.5634 14.6348L15.4205 17.7777C14.1932 19.005 14.1932 20.995 15.4205 22.2223L18.5634 25.3652C19.4622 26.264 20.814 26.5329 21.9884 26.0465C23.0404 25.6108 23.7645 24.6458 23.904 23.5357H29.4286C29.7914 23.5357 30.1415 23.481 30.4711 23.3795C29.0451 27.8012 24.8961 31 20 31C13.9249 31 9 26.0751 9 20C9 13.9249 13.9249 9 20 9C24.8961 9 29.0451 12.1988 30.4711 16.6205Z" fill="#FFD080"/>
<path fill-rule="evenodd" clip-rule="evenodd" d="M21.9644 16.8572C21.9644 16.3805 21.6772 15.9507 21.2368 15.7683C20.7964 15.5859 20.2895 15.6867 19.9524 16.0238L16.8095 19.1666C16.3493 19.6269 16.3493 20.3731 16.8095 20.8334L19.9524 23.9762C20.2895 24.3133 20.7964 24.4142 21.2368 24.2317C21.6772 24.0493 21.9644 23.6196 21.9644 23.1429V21.5714H29.4286C30.2965 21.5714 31.0001 20.8679 31.0001 20C31.0001 19.1321 30.2965 18.4286 29.4286 18.4286H21.9644V16.8572Z" fill="#FAA61A"/>
</svg>
