<svg width="24" height="24" viewBox="0 0 24 24" fill="none" xmlns="http://www.w3.org/2000/svg">
<g clip-path="url(#clip0_15918_47811)">
<mask id="mask0_15918_47811" style="mask-type:luminance" maskUnits="userSpaceOnUse" x="0" y="0" width="24" height="24">
<path d="M24 0H0V24H24V0Z" fill="white"/>
</mask>
<g mask="url(#mask0_15918_47811)">
<path d="M19.25 10C19.25 14.8685 14.6923 17.6908 12 21.25C9.30554 17.6879 4.75 14.8733 4.75 10C4.75 6 8 2.75 12 2.75C16 2.75 19.25 6 19.25 10Z" stroke="#333333" stroke-width="1.5" stroke-linecap="round" stroke-linejoin="round"/>
<path d="M12 13.25C13.7949 13.25 15.25 11.7949 15.25 10C15.25 8.20507 13.7949 6.75 12 6.75C10.2051 6.75 8.75 8.20507 8.75 10C8.75 11.7949 10.2051 13.25 12 13.25Z" stroke="#333333" stroke-width="1.5" stroke-linecap="round" stroke-linejoin="round"/>
</g>
</g>
<defs>
<clipPath id="clip0_15918_47811">
<rect width="24" height="24" fill="white"/>
</clipPath>
</defs>
</svg>
