<svg xmlns="http://www.w3.org/2000/svg" width="48" height="48" fill="none"><rect width="48" height="48" fill="#fff" rx="24"/><mask id="a" width="22" height="22" x="13" y="13" maskUnits="userSpaceOnUse" style="mask-type:alpha"><path fill="#DA2128" fill-rule="evenodd" d="M13.2 15.3c0-1.16.94-2.1 2.1-2.1h17.4c1.16 0 2.1.94 2.1 2.1v17.4a2.1 2.1 0 0 1-2.1 2.1H15.3a2.1 2.1 0 0 1-2.1-2.1zm7.8 4.5a3 3 0 0 1 6 0V21a3 3 0 0 1-6 0zm-3 9.6a3.6 3.6 0 0 1 3.6-3.6h4.8a3.6 3.6 0 0 1 3.6 3.6v.9a.9.9 0 0 1-.9.9H18.9a.9.9 0 0 1-.9-.9z" clip-rule="evenodd"/></mask><g mask="url(#a)"><path fill="#DA2128" stroke="#DA2128" stroke-linecap="round" stroke-linejoin="round" stroke-width="2.16" d="M32.7 14.1H15.3a1.2 1.2 0 0 0-1.2 1.2v17.4a1.2 1.2 0 0 0 1.2 1.2h17.4a1.2 1.2 0 0 0 1.2-1.2V15.3a1.2 1.2 0 0 0-1.2-1.2"/></g></svg>